<svg width="53" height="62" viewBox="0 0 53 62" fill="none" xmlns="http://www.w3.org/2000/svg">
<path d="M47.3214 0.5H5.67857C2.65 0.5 0 3.16875 0 6.21875V55.7812C0 58.8312 2.65 61.5 5.67857 61.5H47.3214C50.35 61.5 53 58.8312 53 55.7812V6.21875C53 3.16875 50.35 0.5 47.3214 0.5ZM15.1429 52.35C15.1429 53.1125 14.3857 53.875 13.6286 53.875H9.08572C8.32857 53.875 7.57143 53.1125 7.57143 52.35V47.775C7.57143 47.0125 8.32857 46.25 9.08572 46.25H13.6286C14.3857 46.25 15.1429 47.0125 15.1429 47.775V52.35ZM15.1429 37.1C15.1429 37.8625 14.3857 38.625 13.6286 38.625H9.08572C8.32857 38.625 7.57143 37.8625 7.57143 37.1V32.525C7.57143 31.7625 8.32857 31 9.08572 31H13.6286C14.3857 31 15.1429 31.7625 15.1429 32.525V37.1ZM30.2857 52.35C30.2857 53.1125 29.5286 53.875 28.7714 53.875H24.2286C23.4714 53.875 22.7143 53.1125 22.7143 52.35V47.775C22.7143 47.0125 23.4714 46.25 24.2286 46.25H28.7714C29.5286 46.25 30.2857 47.0125 30.2857 47.775V52.35ZM30.2857 37.1C30.2857 37.8625 29.5286 38.625 28.7714 38.625H24.2286C23.4714 38.625 22.7143 37.8625 22.7143 37.1V32.525C22.7143 31.7625 23.4714 31 24.2286 31H28.7714C29.5286 31 30.2857 31.7625 30.2857 32.525V37.1ZM45.4286 52.35C45.4286 53.1125 44.6714 53.875 43.9143 53.875H39.3714C38.6143 53.875 37.8571 53.1125 37.8571 52.35V32.525C37.8571 31.7625 38.6143 31 39.3714 31H43.9143C44.6714 31 45.4286 31.7625 45.4286 32.525V52.35ZM45.4286 21.85C45.4286 22.6125 44.6714 23.375 43.9143 23.375H9.08572C8.32857 23.375 7.57143 22.6125 7.57143 21.85V9.65C7.57143 8.8875 8.32857 8.125 9.08572 8.125H43.9143C44.6714 8.125 45.4286 8.8875 45.4286 9.65V21.85Z" fill="#1361D6"/>
</svg>
