<svg width="164" height="64" viewBox="0 0 164 64" fill="none" xmlns="http://www.w3.org/2000/svg">
<path d="M44.1598 4.88C44.1598 6.05333 43.7438 9.11467 42.9118 14.064C42.1011 18.992 41.6958 22.5013 41.6958 24.592C41.6958 26.6613 42.1011 28.1547 42.9118 29.072C42.2504 29.84 41.5144 30.224 40.7038 30.224C39.0398 30.224 38.2078 28.816 38.2078 26C38.2078 24.848 38.5918 21.7973 39.3598 16.848C40.1278 11.8773 40.5118 8.368 40.5118 6.32C37.3758 12.6133 35.5411 16.592 35.0078 18.256C34.4744 19.8987 34.2078 21.104 34.2078 21.872C34.2078 22.0427 34.2291 22.2987 34.2718 22.64C34.1224 22.832 33.8238 23.0027 33.3758 23.152C32.9491 23.3013 32.5118 23.376 32.0638 23.376C31.1251 23.376 30.3998 23.0773 29.8878 22.48C29.3971 21.8613 28.9491 20.7307 28.5438 19.088C28.1384 17.424 27.6691 15.4187 27.1358 13.072C26.6024 10.7253 26.1118 8.73067 25.6638 7.088C25.6211 7.49333 25.2158 10.032 24.4478 14.704C23.7011 19.3547 23.3278 22.6827 23.3278 24.688C23.3278 26.6933 23.7438 28.1547 24.5758 29.072C24.2771 29.84 23.6904 30.224 22.8158 30.224C21.2584 30.224 20.4798 28.816 20.4798 26C20.4798 24.8267 20.8531 21.7867 21.5998 16.88C22.3678 11.952 22.7518 8.51733 22.7518 6.576C22.7518 4.61333 22.5278 3.184 22.0798 2.288C22.5704 1.79733 23.3171 1.56266 24.3198 1.584C25.3224 1.584 26.1758 1.872 26.8798 2.448C27.6051 3.00267 28.1598 3.93067 28.5438 5.232C28.9491 6.512 29.4718 8.688 30.1118 11.76C30.7731 14.832 31.4238 17.392 32.0638 19.44C32.5331 18.16 33.3864 16.2293 34.6238 13.648C35.8611 11.0453 36.9064 8.752 37.7598 6.768C38.6131 4.76267 39.0398 3.32266 39.0398 2.448C39.7224 1.85066 40.7038 1.552 41.9838 1.552C42.7091 1.552 43.2531 1.81867 43.6158 2.352C43.9784 2.864 44.1598 3.70667 44.1598 4.88ZM52.5675 30.448C51.1168 30.448 49.9648 29.7333 49.1115 28.304C48.2795 26.8747 47.8635 24.912 47.8635 22.416C47.8635 18.4053 48.7595 15.024 50.5515 12.272C52.3648 9.49867 54.5942 8.112 57.2395 8.112C59.0528 8.112 60.5568 8.82667 61.7515 10.256C61.9222 9.59467 62.1355 9.12533 62.3915 8.848C62.6688 8.57067 63.0848 8.432 63.6395 8.432C64.2155 8.432 64.7488 8.70933 65.2395 9.264C64.8555 10.288 64.5248 12.0053 64.2475 14.416C63.9702 16.8267 63.8315 19.0773 63.8315 21.168C63.8315 23.2373 63.9382 24.848 64.1515 26C64.3862 27.1307 64.7702 28.144 65.3035 29.04C64.6848 29.8293 63.9595 30.224 63.1275 30.224C61.2928 30.224 60.3755 27.9733 60.3755 23.472C60.3755 22.7467 60.4608 21.4773 60.6315 19.664C59.5222 22.7573 58.1995 25.328 56.6635 27.376C55.1488 29.424 53.7835 30.448 52.5675 30.448ZM57.3675 10.32C55.5542 10.32 54.0715 11.376 52.9195 13.488C51.7888 15.6 51.2235 18.3093 51.2235 21.616C51.2235 23.3013 51.4368 24.6347 51.8635 25.616C52.3115 26.576 52.9088 27.056 53.6555 27.056C54.4235 27.056 55.3835 26.224 56.5355 24.56C57.7088 22.896 58.7755 20.8693 59.7355 18.48C60.6955 16.0693 61.2822 13.904 61.4955 11.984C60.0448 10.8747 58.6688 10.32 57.3675 10.32ZM73.4163 9.84L73.4803 8.368C73.4803 6.384 73.2563 4.944 72.8083 4.048C73.0216 3.856 73.3416 3.68533 73.7683 3.536C74.2163 3.38667 74.6109 3.312 74.9523 3.312C75.6989 3.312 76.2536 3.568 76.6163 4.08C76.9789 4.592 77.1603 5.456 77.1603 6.672C77.1603 7.14133 77.0323 8.19733 76.7763 9.84C79.4003 9.79733 81.1389 9.488 81.9923 8.912C81.8216 10.2987 81.3416 11.2267 80.5523 11.696C79.7629 12.1653 78.3549 12.4213 76.3283 12.464C75.3469 18.5013 74.8563 23.0347 74.8563 26.064C74.8563 26.768 75.0056 27.2907 75.3043 27.632C75.6243 27.9733 76.0296 28.144 76.5203 28.144C77.0323 28.144 77.5763 27.9307 78.1523 27.504C78.7283 27.056 79.1869 26.5013 79.5283 25.84C79.9123 26.3093 80.1043 26.8107 80.1043 27.344C80.1043 28.176 79.6883 28.912 78.8563 29.552C78.0456 30.1707 76.9896 30.48 75.6883 30.48C74.3869 30.48 73.3523 30.1387 72.5843 29.456C71.8376 28.752 71.4643 27.6533 71.4643 26.16C71.4643 24.816 71.7096 22.4587 72.2003 19.088C72.6909 15.696 73.0003 13.4987 73.1283 12.496C71.2296 12.496 69.8216 12.784 68.9043 13.36C68.9043 12.3787 69.0003 11.6853 69.1923 11.28C69.3843 10.8747 69.6403 10.5867 69.9603 10.416C70.7496 10.032 71.9016 9.84 73.4163 9.84ZM87.438 29.776C86.7127 30.0747 85.998 30.224 85.294 30.224C84.6113 30.224 84.1207 29.9573 83.822 29.424C83.5447 28.8693 83.406 27.9947 83.406 26.8C83.406 25.6053 83.8433 22.4053 84.718 17.2C86.19 8.304 86.4033 2.81067 85.358 0.719999C85.87 0.250666 86.5313 0.0159988 87.342 0.0159988C88.174 0.0159988 88.7713 0.271999 89.134 0.783998C89.4967 1.296 89.678 2.23466 89.678 3.6C89.678 4.944 89.3153 7.664 88.59 11.76C87.886 15.856 87.47 18.416 87.342 19.44C89.6033 14.0213 91.5447 10.608 93.166 9.2C93.9127 8.56 94.6593 8.24 95.406 8.24C97.8807 8.24 99.118 10.0853 99.118 13.776C99.118 14.8427 98.99 16.3787 98.734 18.384C98.4993 20.3893 98.382 21.9147 98.382 22.96C98.382 25.968 98.8513 28.0053 99.79 29.072C99.0433 29.84 98.2967 30.224 97.55 30.224C95.7793 30.224 94.894 28.1547 94.894 24.016C94.894 22.48 95.0647 20.5493 95.406 18.224C95.7687 15.8773 95.95 14.384 95.95 13.744C95.95 13.0827 95.822 12.5707 95.566 12.208C95.31 11.824 94.862 11.632 94.222 11.632C93.3687 11.632 92.3447 12.6133 91.15 14.576C89.9553 16.5173 88.942 18.7147 88.11 21.168C87.2993 23.6 86.894 25.5093 86.894 26.896C86.894 28.2827 87.0753 29.2427 87.438 29.776ZM15.68 39.76C15.2533 38.6933 14.5387 37.7867 13.536 37.04C12.5333 36.2933 11.4133 35.92 10.176 35.92C8.96 35.92 7.95733 36.2933 7.168 37.04C6.37867 37.7653 5.984 38.7893 5.984 40.112C5.984 40.7093 6.02667 41.2 6.112 41.584C6.21867 41.968 6.47467 42.3947 6.88 42.864C7.30667 43.312 7.712 43.696 8.096 44.016C8.50133 44.336 9.23733 44.9227 10.304 45.776C11.3707 46.6293 12.4587 47.536 13.568 48.496C14.6987 49.4347 15.5627 50.4053 16.16 51.408C16.7573 52.4107 17.056 53.6907 17.056 55.248C17.056 57.296 16.2347 59.024 14.592 60.432C12.9707 61.84 10.9013 62.544 8.384 62.544C6.42133 62.544 4.704 62.16 3.232 61.392C1.76 60.6027 1.024 59.4933 1.024 58.064C1.024 57.4453 1.16267 56.8907 1.44 56.4C1.71733 55.9093 2.12267 55.3547 2.656 54.736C3.59467 58.5333 5.78133 60.432 9.216 60.432C10.4533 60.432 11.5413 60.08 12.48 59.376C13.4187 58.672 13.888 57.6267 13.888 56.24C13.888 55.4507 13.792 54.8533 13.6 54.448C13.408 54.0213 13.248 53.6907 13.12 53.456C13.0133 53.2213 12.8107 52.944 12.512 52.624C12.2133 52.2827 11.968 52.016 11.776 51.824C11.584 51.6107 11.2533 51.312 10.784 50.928C10.3147 50.5227 9.94133 50.2133 9.664 50C9.408 49.7653 8.96 49.4027 8.32 48.912C7.68 48.4 7.17867 47.9947 6.816 47.696C5.57867 46.6933 4.62933 45.6907 3.968 44.688C3.328 43.6853 3.008 42.48 3.008 41.072C3.008 38.704 3.808 36.8587 5.408 35.536C7.008 34.2133 9.09867 33.552 11.68 33.552C13.216 33.552 14.5067 33.8507 15.552 34.448C16.5973 35.0453 17.12 35.8667 17.12 36.912C17.12 37.9573 16.64 38.9067 15.68 39.76ZM28.9433 42.512C27.9406 42.512 27.0659 42.896 26.3193 43.664C25.5939 44.4107 25.0499 45.36 24.6873 46.512C24.0046 48.6453 23.6633 50.8107 23.6633 53.008C23.6633 55.184 24.1113 56.9227 25.0073 58.224C25.9033 59.5253 27.1513 60.176 28.7513 60.176C29.7753 60.176 30.6606 59.8027 31.4073 59.056C32.1539 58.288 32.7086 57.328 33.0713 56.176C33.7539 53.9787 34.0953 51.8027 34.0953 49.648C34.0953 47.472 33.6366 45.744 32.7193 44.464C31.8233 43.1627 30.5646 42.512 28.9433 42.512ZM27.1833 62.544C24.9646 62.544 23.2473 61.712 22.0312 60.048C20.8153 58.384 20.2073 56.272 20.2073 53.712C20.2073 52.1547 20.4526 50.5867 20.9433 49.008C21.4339 47.408 22.1059 45.9467 22.9593 44.624C23.8126 43.28 24.9113 42.192 26.2552 41.36C27.5993 40.528 29.0499 40.112 30.6073 40.112C32.8259 40.112 34.5326 40.944 35.7273 42.608C36.9433 44.272 37.5513 46.384 37.5513 48.944C37.5513 51.568 36.9539 54.0533 35.7593 56.4C34.4579 58.9387 32.7833 60.72 30.7353 61.744C29.6259 62.2773 28.4419 62.544 27.1833 62.544ZM48.8068 35.312C48.8068 36.4853 48.3908 39.8027 47.5588 45.264C46.7481 50.7253 46.3428 54.512 46.3428 56.624C46.3428 58.7147 46.7481 60.1973 47.5588 61.072C46.8974 61.84 46.1614 62.224 45.3508 62.224C43.6868 62.224 42.8548 60.816 42.8548 58C42.8548 56.9547 43.2281 53.84 43.9748 48.656C44.7428 43.472 45.1268 39.7493 45.1268 37.488C45.1268 35.2053 44.9028 33.616 44.4548 32.72C44.6894 32.528 45.0201 32.368 45.4468 32.24C45.8948 32.0907 46.2788 32.016 46.5988 32.016C47.3454 32.016 47.9001 32.272 48.2628 32.784C48.6254 33.296 48.8068 34.1387 48.8068 35.312ZM60.7758 61.52L60.8078 61.936C60.1038 62.192 59.5064 62.32 59.0158 62.32C58.1411 62.32 57.5971 61.8613 57.3838 60.944C55.6344 53.4987 54.2691 48.6667 53.2878 46.448C52.5624 44.7627 51.9758 43.7173 51.5278 43.312C51.1011 42.8853 50.7278 42.672 50.4078 42.672C50.6424 41.9467 51.0158 41.4133 51.5278 41.072C52.0398 40.7307 52.5411 40.56 53.0318 40.56C54.3331 40.56 55.4211 41.6587 56.2958 43.856C56.7864 45.1573 58.0238 50.032 60.0078 58.48C61.0958 55.8773 62.0024 53.1253 62.7278 50.224C63.4531 47.3013 63.8158 45.0187 63.8158 43.376C63.8158 42.7573 63.6984 42.2453 63.4638 41.84C63.9544 41.0507 64.7118 40.656 65.7358 40.656C66.7171 40.656 67.2078 41.2213 67.2078 42.352C67.2078 43.4827 66.5891 45.9893 65.3518 49.872C64.1144 53.7547 62.7704 57.136 61.3198 60.016C60.9784 60.72 60.7971 61.2213 60.7758 61.52ZM75.2663 53.008C74.6903 53.008 74.1143 52.976 73.5383 52.912C73.5596 55.28 73.9969 57.0827 74.8503 58.32C75.7249 59.5573 76.9409 60.176 78.4983 60.176C80.6956 60.176 82.2956 59.0987 83.2983 56.944C83.8103 57.4347 84.0662 58.032 84.0662 58.736C84.0662 59.9307 83.3943 60.8693 82.0503 61.552C80.7276 62.2133 79.3409 62.544 77.8903 62.544C75.3089 62.544 73.3569 61.7227 72.0343 60.08C70.7329 58.4373 70.0823 56.3147 70.0823 53.712C70.0823 52.1547 70.3276 50.5867 70.8183 49.008C71.3089 47.408 71.9809 45.9467 72.8343 44.624C73.6876 43.28 74.7863 42.192 76.1302 41.36C77.4743 40.528 78.9463 40.112 80.5463 40.112C82.1463 40.112 83.3623 40.5173 84.1943 41.328C85.0476 42.1387 85.4743 43.184 85.4743 44.464C85.4743 46.5333 84.5143 48.4747 82.5943 50.288C80.6956 52.1013 78.2529 53.008 75.2663 53.008ZM82.1143 45.52C82.1143 44.6453 81.8369 43.9307 81.2823 43.376C80.7489 42.8 80.0023 42.512 79.0423 42.512C78.1036 42.512 77.2823 42.7787 76.5783 43.312C75.8956 43.8453 75.3516 44.56 74.9463 45.456C74.2209 47.12 73.7729 48.9227 73.6023 50.864C74.1143 50.928 74.5943 50.96 75.0423 50.96C77.2183 50.96 78.9356 50.4053 80.1943 49.296C81.4743 48.1653 82.1143 46.9067 82.1143 45.52ZM92.1945 62.224C90.5305 62.224 89.6985 60.816 89.6985 58C89.6985 56.8267 89.9225 54.8427 90.3705 52.048C90.8185 49.2533 91.0425 46.96 91.0425 45.168C91.0425 43.376 90.8185 42.0533 90.3705 41.2C90.9038 40.7093 91.5545 40.464 92.3225 40.464C93.8798 40.464 94.6585 41.2747 94.6585 42.896C94.6585 43.472 94.5198 44.656 94.2425 46.448C93.9865 48.24 93.8158 49.4667 93.7305 50.128C94.8825 47.0987 96.1732 44.6773 97.6025 42.864C99.0532 41.0293 100.248 40.112 101.187 40.112C101.72 40.112 102.115 40.368 102.371 40.88C102.648 41.392 102.787 41.9147 102.787 42.448C102.787 42.9813 102.723 43.5253 102.595 44.08C102.275 44.016 101.976 43.984 101.699 43.984C100.333 43.984 98.9572 44.784 97.5705 46.384C96.2052 47.984 95.1278 49.744 94.3385 51.664C93.5705 53.584 93.1865 55.1733 93.1865 56.432C93.1865 58.6507 93.5918 60.1973 94.4025 61.072C93.7412 61.84 93.0052 62.224 92.1945 62.224Z" fill="#1361D6"/>
<path d="M158.321 1.5H116.679C113.65 1.5 111 4.16875 111 7.21875V56.7812C111 59.8313 113.65 62.5 116.679 62.5H158.321C161.35 62.5 164 59.8313 164 56.7812V7.21875C164 4.16875 161.35 1.5 158.321 1.5ZM126.143 53.35C126.143 54.1125 125.386 54.875 124.629 54.875H120.086C119.329 54.875 118.571 54.1125 118.571 53.35V48.775C118.571 48.0125 119.329 47.25 120.086 47.25H124.629C125.386 47.25 126.143 48.0125 126.143 48.775V53.35ZM126.143 38.1C126.143 38.8625 125.386 39.625 124.629 39.625H120.086C119.329 39.625 118.571 38.8625 118.571 38.1V33.525C118.571 32.7625 119.329 32 120.086 32H124.629C125.386 32 126.143 32.7625 126.143 33.525V38.1ZM141.286 53.35C141.286 54.1125 140.529 54.875 139.771 54.875H135.229C134.471 54.875 133.714 54.1125 133.714 53.35V48.775C133.714 48.0125 134.471 47.25 135.229 47.25H139.771C140.529 47.25 141.286 48.0125 141.286 48.775V53.35ZM141.286 38.1C141.286 38.8625 140.529 39.625 139.771 39.625H135.229C134.471 39.625 133.714 38.8625 133.714 38.1V33.525C133.714 32.7625 134.471 32 135.229 32H139.771C140.529 32 141.286 32.7625 141.286 33.525V38.1ZM156.429 53.35C156.429 54.1125 155.671 54.875 154.914 54.875H150.371C149.614 54.875 148.857 54.1125 148.857 53.35V33.525C148.857 32.7625 149.614 32 150.371 32H154.914C155.671 32 156.429 32.7625 156.429 33.525V53.35ZM156.429 22.85C156.429 23.6125 155.671 24.375 154.914 24.375H120.086C119.329 24.375 118.571 23.6125 118.571 22.85V10.65C118.571 9.8875 119.329 9.125 120.086 9.125H154.914C155.671 9.125 156.429 9.8875 156.429 10.65V22.85Z" fill="#1361D6"/>
</svg>
